<svg width="305" height="330" viewBox="0 0 305 330" fill="none" xmlns="http://www.w3.org/2000/svg">
<g clip-path="url(#clip0_105_229)">
<path d="M303.608 262.879V263.327H303.594C303.601 263.178 303.608 263.028 303.608 262.879Z" fill="black"/>
<path d="M303.609 262.872C303.609 263.028 303.601 263.178 303.594 263.327H299.986V262.872H303.609Z" fill="black"/>
<path d="M303.594 182.925L303.608 262.872H299.986L299.972 193.195L303.5 182.925H303.594Z" fill="black"/>
<path d="M303.594 179.303V182.925H303.5L302.116 182.471C302.732 181.469 303.224 180.411 303.594 179.303Z" fill="black"/>
<path d="M303.58 73.5125L303.594 167.819H303.558C303.094 165.81 302.529 163.778 301.522 161.84L301.631 161.769L300.486 160.114L299.972 159.368L299.957 81.0547C302.138 78.6117 303.427 75.9981 303.58 73.5125Z" fill="black"/>
<path d="M303.579 72.788C303.579 72.8661 303.594 72.9371 303.594 73.0152C303.594 73.1786 303.587 73.349 303.579 73.5124V72.788Z" fill="black"/>
<path d="M303.58 72.788V73.5124C303.427 75.9981 302.138 78.6116 299.957 81.0547V73.3703C299.957 73.2496 299.972 73.1289 299.972 73.0152C299.972 72.0352 300.783 71.2397 301.783 71.2397C302.703 71.2397 303.464 71.9144 303.58 72.788Z" fill="black"/>
<path d="M303.558 167.819H299.972V162.876L301.522 161.84C302.529 163.778 303.094 165.81 303.558 167.819Z" fill="black"/>
<path d="M303.5 182.925L299.972 193.195V185.241C300.117 185.091 300.254 184.942 300.392 184.793C301.044 184.062 301.623 183.288 302.116 182.471L303.5 182.925Z" fill="black"/>
<path d="M300.073 181.789L302.116 182.471C301.623 183.287 301.044 184.062 300.392 184.793C300.254 184.942 300.117 185.091 299.972 185.24V182.08L300.073 181.789Z" fill="black"/>
<path d="M300.486 160.114L301.631 161.769L301.522 161.84C301.218 161.257 300.877 160.682 300.486 160.114Z" fill="black"/>
<path d="M301.522 161.84L299.972 162.876V159.624C300.167 159.752 300.341 159.915 300.486 160.114C300.877 160.682 301.218 161.257 301.522 161.84Z" fill="black"/>
<path d="M300.37 170.142C301.066 173.295 300.942 176.136 300.008 178.607H299.972V178.7C299.45 180.063 298.682 181.32 297.661 182.457C292.988 187.712 283.969 189.53 277.115 189.005C265.647 188.124 257.403 182.066 253.02 176.107L253.042 176.093L251.774 174.261C251.731 174.19 251.687 174.126 251.637 174.062L199.665 98.7102L170.557 56.5174L197.245 48.6911L215.4 43.3717L242.168 82.0916L297.487 162.102C299.124 164.474 299.733 167.223 300.37 170.142Z" fill="#FEFAE0"/>
<path d="M299.972 159.368L300.486 160.114C300.341 159.915 300.167 159.752 299.972 159.624V159.368Z" fill="black"/>
<path d="M300.073 181.789L299.972 182.073V178.7C299.972 178.7 300.001 178.643 300.008 178.607H303.594V179.303C303.224 180.411 302.732 181.469 302.116 182.471L300.073 181.789Z" fill="black"/>
<path d="M300.008 178.607C300.001 178.643 299.986 178.672 299.972 178.701V178.607H300.008Z" fill="black"/>
<path d="M299.972 193.195L299.986 262.872C299.986 268.497 289.134 274.519 272.986 274.519C272.675 274.519 272.37 274.519 272.059 274.512L299.972 193.195Z" fill="#CCD5AE"/>
<path d="M299.972 185.241V193.195L272.059 274.512C271.515 274.505 270.979 274.484 270.443 274.463L268.48 273.816L298.378 186.725C298.936 186.263 299.472 185.766 299.972 185.241Z" fill="black"/>
<path d="M299.972 182.08V185.24C299.472 185.766 298.936 186.263 298.378 186.725L299.972 182.08Z" fill="black"/>
<path d="M299.972 159.368L249.985 87.063C256.302 89.8895 264.894 91.7503 272.906 91.7503C284.642 91.7503 294.792 86.8712 299.957 81.0547L299.972 159.368Z" fill="#CCD5AE"/>
<path d="M299.972 162.877V167.819H303.558C303.681 168.345 303.797 168.863 303.913 169.389C304.702 172.976 304.586 176.328 303.594 179.303V178.607H300.008C300.942 176.136 301.066 173.295 300.37 170.142C299.733 167.223 299.124 164.474 297.487 162.109L298.631 163.764L299.972 162.877Z" fill="black"/>
<path d="M299.972 159.624V162.876L298.632 163.764L297.487 162.109C296.929 161.293 297.139 160.192 297.972 159.645C298.595 159.226 299.378 159.247 299.972 159.624Z" fill="black"/>
<path d="M299.957 73.3704V81.0547C294.792 86.8712 284.642 91.7503 272.906 91.7503C264.894 91.7503 256.302 89.8895 249.985 87.063L244.711 79.4354C244.907 79.5278 245.088 79.6556 245.247 79.8261C249.029 83.8671 261.047 88.1993 272.906 88.1993C288.047 88.1993 299.515 79.3431 299.957 73.3704Z" fill="black"/>
<path d="M299.957 72.0352V73.3704C299.515 79.3431 288.047 88.1993 272.906 88.1993C261.047 88.1993 249.029 83.8671 245.247 79.826C245.088 79.6556 244.907 79.5278 244.711 79.4354L217.653 40.2965C217.211 39.6573 216.392 39.3732 215.632 39.5934L197.187 45.0051L159.248 17.4921L205.591 3.90601L299.957 72.0352Z" fill="#FEFAE0"/>
<path d="M298.378 186.725L268.48 273.816L252.542 320.242C247.413 325.362 238.618 326.648 232.562 326.186C219.906 325.213 211.176 317.934 207.221 311.45C207.199 311.4 207.17 311.357 207.134 311.315L197.035 297.587C198.259 296.003 198.962 294.284 199.071 292.48H199.078V292.04C199.078 282.126 199.049 111.387 199.049 111.387V104.157L248.666 176.086C254.303 185.333 265.09 191.639 276.833 192.541C277.659 192.605 278.528 192.641 279.426 192.641C285.541 192.641 293.104 191.085 298.378 186.725ZM243.066 208.549C243.385 207.619 242.871 206.617 241.922 206.305C240.973 205.992 239.951 206.497 239.632 207.427L214.052 282.616C213.741 283.546 214.248 284.547 215.197 284.86C215.392 284.924 215.581 284.952 215.769 284.952C216.53 284.952 217.24 284.476 217.493 283.738L243.066 208.549Z" fill="#D4A373"/>
<path d="M270.849 278.035L272.059 274.512C272.37 274.519 272.674 274.519 272.986 274.519C289.134 274.519 299.986 268.497 299.986 262.872V263.327H303.594C303.13 271.629 289.851 278.07 272.986 278.07C272.276 278.07 271.559 278.056 270.849 278.035Z" fill="black"/>
<path d="M272.059 274.512L270.849 278.035L270.284 278.014L270.443 274.463C270.979 274.484 271.516 274.505 272.059 274.512Z" fill="black"/>
<path d="M270.849 278.035L255.846 321.747C255.766 321.989 255.628 322.209 255.454 322.394C250.188 327.926 241.581 329.822 234.844 329.822C233.953 329.822 233.091 329.787 232.279 329.723C220.565 328.828 209.8 322.55 204.156 313.332L194.463 300.157C195.477 299.348 196.34 298.496 197.035 297.587L207.134 311.315C207.17 311.357 207.199 311.4 207.221 311.45C211.176 317.934 219.906 325.213 232.562 326.186C238.618 326.648 247.413 325.362 252.542 320.242L268.48 273.816L270.443 274.463L270.284 278.014L270.849 278.035Z" fill="black"/>
<path d="M251.774 174.261L253.042 176.093L253.02 176.107C252.564 175.49 252.144 174.872 251.774 174.261Z" fill="black"/>
<path d="M250.043 178.082L253.02 176.107C257.403 182.066 265.647 188.124 277.115 189.005C283.969 189.53 292.988 187.712 297.661 182.457C298.682 181.32 299.45 180.063 299.972 178.7V182.073L298.378 186.725C293.104 191.085 285.541 192.641 279.426 192.641C278.528 192.641 277.659 192.605 276.833 192.541C265.09 191.639 254.303 185.333 248.666 176.093L250.043 178.082Z" fill="black"/>
<path d="M249.289 173.65C250.079 173.189 251.079 173.38 251.637 174.062C251.687 174.126 251.731 174.19 251.774 174.261C252.144 174.872 252.564 175.49 253.02 176.107L250.043 178.082L248.666 176.093C248.152 175.241 248.435 174.154 249.289 173.65Z" fill="black"/>
<path d="M241.922 206.305C242.871 206.617 243.385 207.619 243.066 208.549L217.494 283.738C217.24 284.476 216.53 284.952 215.769 284.952C215.581 284.952 215.393 284.924 215.197 284.86C214.248 284.547 213.741 283.546 214.052 282.616L239.633 207.427C239.951 206.497 240.973 205.993 241.922 206.305Z" fill="black"/>
<path d="M242.69 79.7195C243.255 79.2082 244.059 79.1158 244.711 79.4354L249.985 87.0629C246.826 85.6568 244.24 84.0091 242.574 82.2265C242.494 82.1413 242.422 82.049 242.364 81.9566C241.922 81.2464 242.038 80.3019 242.69 79.7195Z" fill="black"/>
<path d="M242.574 82.2265C244.24 84.0091 246.826 85.6568 249.985 87.063L299.972 159.368V159.624C299.378 159.247 298.595 159.226 297.972 159.645C297.139 160.192 296.929 161.293 297.487 162.102L242.168 82.0916L242.364 81.9567C242.422 82.049 242.494 82.1413 242.574 82.2265Z" fill="black"/>
<path d="M199.665 98.7102L251.637 174.062C251.079 173.38 250.079 173.189 249.289 173.65C248.435 174.154 248.152 175.241 248.666 176.086L199.049 104.157V103.518C199.071 103.284 199.078 103.057 199.078 102.829C199.078 102.723 199.071 102.616 199.049 102.51V100.294C199.049 99.9459 198.948 99.605 198.752 99.3139L199.665 98.7102Z" fill="black"/>
<path d="M199.078 292.04V292.48H199.071C199.071 292.331 199.078 292.189 199.078 292.04Z" fill="black"/>
<path d="M199.078 292.033C199.078 292.189 199.071 292.331 199.071 292.48H195.456V292.04L199.078 292.033Z" fill="black"/>
<path d="M199.049 111.387C199.049 111.387 199.078 282.126 199.078 292.033H195.456C195.456 282.126 195.427 111.387 195.427 111.387V110.741C197.397 108.596 198.643 106.295 198.984 104.065L199.049 104.157V111.387Z" fill="black"/>
<path d="M199.049 102.51C199.071 102.616 199.078 102.723 199.078 102.829C199.078 103.057 199.071 103.284 199.049 103.518V102.51Z" fill="black"/>
<path d="M195.456 292.48H199.071C198.962 294.284 198.259 296.003 197.035 297.587L196.224 296.479L193.377 298.489L192.442 297.217C194.391 295.584 195.456 293.794 195.456 292.04V292.48Z" fill="black"/>
<path d="M199.049 103.518V104.157L198.984 104.065C199.013 103.88 199.035 103.696 199.049 103.518Z" fill="black"/>
<path d="M199.049 102.51V103.518C199.035 103.696 199.013 103.88 198.984 104.065L196.926 101.082C197.035 101.068 197.151 101.054 197.267 101.054C198.158 101.054 198.897 101.679 199.049 102.51Z" fill="black"/>
<path d="M199.049 100.294V102.51C198.897 101.679 198.158 101.054 197.267 101.054C197.151 101.054 197.035 101.068 196.926 101.082L192.5 94.6692L198.317 98.8665C198.491 98.9943 198.636 99.1434 198.752 99.3139C198.948 99.6051 199.049 99.9459 199.049 100.294Z" fill="black"/>
<path d="M196.926 101.082L198.984 104.065C198.643 106.295 197.397 108.596 195.427 110.741V103.312C195.448 103.149 195.456 102.986 195.456 102.829C195.456 101.956 196.086 101.239 196.926 101.082Z" fill="black"/>
<path d="M197.912 45.5307C198.716 46.113 198.89 47.228 198.288 48.0164C198.02 48.3715 197.651 48.5987 197.245 48.6839C197.108 48.7195 196.97 48.7337 196.832 48.7337C196.463 48.7337 196.086 48.62 195.76 48.3857L192.848 46.2764L197.187 45.0051L197.912 45.5307Z" fill="black"/>
<path d="M215.4 43.3716L197.245 48.691C197.651 48.5987 198.02 48.3714 198.288 48.0163C198.89 47.228 198.716 46.113 197.912 45.5306L197.187 45.0051L215.632 39.5934C216.392 39.3732 217.211 39.6573 217.653 40.2965L244.711 79.4354C244.059 79.1158 243.255 79.2082 242.69 79.7195C242.038 80.3019 241.922 81.2464 242.364 81.9566L242.168 82.0916L215.4 43.3716Z" fill="black"/>
<path d="M197.187 45.0051L192.848 46.2763L157.075 20.3329V18.1312L159.248 17.4921L197.187 45.0051Z" fill="black"/>
<path d="M196.224 296.479L197.035 297.587C196.34 298.496 195.478 299.348 194.463 300.158L193.282 298.553L193.377 298.489L196.224 296.479Z" fill="black"/>
<path d="M163.283 73.5763L192.5 94.6691L196.926 101.082C196.086 101.238 195.456 101.956 195.456 102.829C195.456 102.986 195.449 103.149 195.427 103.312V101.189L158.676 74.6629L159.429 73.6615L162.856 74.8049L163.283 73.5763Z" fill="black"/>
<path d="M195.427 101.189V103.312C194.833 109.15 183.662 117.36 168.376 117.36C158.248 117.36 148.454 114.938 143.136 111.153C142.955 111.025 142.781 110.897 142.607 110.762C142.593 110.755 142.578 110.741 142.564 110.734L54.703 46.6527L101.06 33.0667L153.018 70.5721L158.676 74.6629L195.427 101.189Z" fill="#FEFAE0"/>
<path d="M193.282 298.552L194.463 300.158C189.102 304.433 179.554 307.224 168.456 307.224C160.95 307.224 153.72 305.889 148.193 303.524V299.596C153.387 302.196 160.74 303.673 168.456 303.673C179.554 303.673 188.153 300.825 192.442 297.217L193.377 298.489L193.282 298.552Z" fill="black"/>
<path d="M157.075 20.3329L192.848 46.2764L167.152 53.8116C166.601 53.9749 166.159 54.3797 165.971 54.9124C165.971 54.9195 165.964 54.9266 165.964 54.9337H165.956L160.226 71.3676L157.075 69.095V20.3329Z" fill="#CCD5AE"/>
<path d="M168.209 59.4576L192.5 94.6692L163.283 73.5764L168.209 59.4576Z" fill="#D4A373"/>
<path d="M170.557 56.5174L199.665 98.7102L198.752 99.3139C198.636 99.1434 198.491 98.9943 198.317 98.8665L192.5 94.6692L168.209 59.4577L169.39 56.0842L170.557 56.5174Z" fill="black"/>
<path d="M169.39 56.0842L168.209 59.4577L166.174 56.5032C165.855 56.0416 165.775 55.4593 165.963 54.9337L169.39 56.0842Z" fill="black"/>
<path d="M169.39 56.0842L165.964 54.9337C165.964 54.9337 165.971 54.9195 165.971 54.9124C166.159 54.3797 166.601 53.9749 167.152 53.8115L192.848 46.2764L195.76 48.3856C196.086 48.62 196.463 48.7336 196.832 48.7336C196.97 48.7336 197.108 48.7194 197.245 48.6839L170.557 56.5174L169.39 56.0842Z" fill="black"/>
<path d="M166.174 56.5033L168.209 59.4577L163.283 73.5764L160.226 71.3677L165.956 54.9337H165.964C165.775 55.4593 165.855 56.0416 166.174 56.5033Z" fill="black"/>
<path d="M163.283 73.5763L162.856 74.8049L159.429 73.6615L160.226 71.3676L163.283 73.5763Z" fill="black"/>
<path d="M160.226 71.3676L159.429 73.6615L158.676 74.6629L153.018 70.5722L153.452 69.9898H157.075V69.095L160.226 71.3676Z" fill="black"/>
<path d="M157.075 69.095V69.9898H153.452V66.4744L157.075 69.095Z" fill="black"/>
<path d="M157.075 20.3329V69.095L153.452 66.4744V16.9098C153.481 17.414 153.735 17.9112 154.184 18.2379L157.075 20.3329Z" fill="black"/>
<path d="M154.872 15.0774L205.417 0.255618C205.96 0.092273 206.554 0.191701 207.011 0.525493L302.848 69.7058C303.311 70.0396 303.579 70.5722 303.579 71.1404V72.788C303.464 71.9145 302.703 71.2398 301.783 71.2398C300.783 71.2398 299.972 72.0352 299.972 73.0153C299.972 73.1289 299.965 73.2496 299.957 73.3704V72.0352L205.591 3.90603L159.248 17.4921L156.336 15.3828C155.901 15.0632 155.365 14.9709 154.872 15.0774Z" fill="black"/>
<path d="M156.336 15.3828L159.248 17.4921L157.075 18.1313V20.3329L154.184 18.2378C153.735 17.9111 153.481 17.414 153.452 16.9097V16.8103C153.452 16.7109 153.46 16.6186 153.474 16.5191C153.518 16.2493 153.626 15.9865 153.807 15.7521C153.851 15.6953 153.902 15.6385 153.952 15.5888C153.974 15.5604 154.01 15.532 154.039 15.5035C154.09 15.4609 154.141 15.4183 154.191 15.3828C154.206 15.3686 154.22 15.3544 154.235 15.3473C154.307 15.2976 154.38 15.255 154.459 15.2195H154.467C154.554 15.1769 154.648 15.1413 154.742 15.1129C154.785 15.0987 154.829 15.0845 154.872 15.0774C155.365 14.9709 155.901 15.0632 156.336 15.3828Z" fill="black"/>
<path d="M154.742 15.1129C154.648 15.1418 154.553 15.178 154.467 15.2214C154.553 15.1708 154.648 15.1346 154.742 15.1129Z" fill="black"/>
<path d="M154.191 15.3828C154.141 15.419 154.09 15.4624 154.039 15.5058C154.083 15.4551 154.141 15.419 154.191 15.3828Z" fill="black"/>
<path d="M154.039 15.5035C154.039 15.5035 153.974 15.5614 153.952 15.5903L154.039 15.5035Z" fill="black"/>
<path d="M153.474 16.5192C153.46 16.6186 153.452 16.7109 153.452 16.8103V16.9098C153.445 16.7819 153.452 16.647 153.474 16.5192Z" fill="black"/>
<path d="M148.164 117.651C153.851 119.725 160.972 120.911 168.376 120.911C180.257 120.911 190.298 116.323 195.427 110.741V111.387C195.427 111.387 195.456 282.126 195.456 292.033C195.456 293.794 194.391 295.584 192.442 297.217C188.153 300.825 179.554 303.673 168.456 303.673C160.74 303.673 153.387 302.196 148.193 299.596C148.193 264.101 148.164 126.799 148.164 126.799V119.1C148.186 118.873 148.193 118.645 148.193 118.418H148.164V117.651Z" fill="#CCD5AE"/>
<path d="M148.193 299.596C148.048 299.533 147.903 299.454 147.765 299.383L146.063 302.515H144.571C144.571 272.467 144.542 126.806 144.542 126.806V126.252C146.671 123.951 147.954 121.486 148.164 119.1V126.799C148.164 126.799 148.186 264.101 148.193 299.596Z" fill="black"/>
<path d="M147.765 299.383C147.903 299.454 148.048 299.532 148.193 299.596V303.524C147.454 303.204 146.737 302.87 146.063 302.515L147.765 299.383Z" fill="black"/>
<path d="M148.193 307.444C148.193 307.6 148.193 307.742 148.193 307.892H144.578V307.451L148.2 307.444H148.193Z" fill="black"/>
<path d="M148.193 303.524V307.444H144.571V302.515H146.063C146.737 302.87 147.454 303.204 148.193 303.524Z" fill="black"/>
<path d="M148.164 118.418H148.193C148.193 118.645 148.193 118.873 148.164 119.1V118.418Z" fill="black"/>
<path d="M148.164 118.418V119.1C147.954 121.486 146.671 123.951 144.542 126.252V118.894C144.563 118.738 144.571 118.574 144.571 118.418H148.164Z" fill="black"/>
<path d="M148.164 117.651V118.418H144.571C144.571 118.574 144.571 118.738 144.542 118.894V116.6L140.977 114.001C142.941 115.407 145.382 116.636 148.164 117.651Z" fill="black"/>
<path d="M148.164 115.705V117.651C145.382 116.636 142.941 115.407 140.977 114.001C140.767 113.852 140.557 113.702 140.362 113.546C139.579 112.943 139.442 111.828 140.065 111.053C140.673 110.301 141.781 110.159 142.564 110.734C142.578 110.741 142.593 110.755 142.607 110.762C142.781 110.897 142.955 111.025 143.136 111.153L147.432 114.285C147.896 114.619 148.164 115.144 148.164 115.705Z" fill="black"/>
<path d="M143.136 111.153C148.454 114.938 158.248 117.36 168.376 117.36C183.662 117.36 194.833 109.15 195.427 103.312V110.741C190.298 116.323 180.257 120.911 168.376 120.911C160.972 120.911 153.851 119.725 148.164 117.651V115.705C148.164 115.144 147.896 114.619 147.432 114.285L143.136 111.153Z" fill="black"/>
<path d="M144.571 307.444C144.571 313.076 133.711 319.084 117.563 319.084C107.863 319.084 98.7493 316.67 93.9462 312.934L94.0984 312.735L3.80334 245.799V64.9829L90.0994 128.006C94.9387 131.883 104.922 136.322 117.491 136.322C129.372 136.322 139.413 131.784 144.542 126.252V126.806C144.542 126.806 144.563 272.467 144.571 302.515V307.444ZM95.1416 278.93V155.59C95.1416 154.603 94.3302 153.814 93.3305 153.814C92.3307 153.814 91.5193 154.603 91.5193 155.59V278.93C91.5193 279.91 92.3307 280.705 93.3305 280.705C94.3302 280.705 95.1416 279.91 95.1416 278.93Z" fill="#CCD5AE"/>
<path d="M144.542 118.894V126.252C139.413 131.784 129.372 136.322 117.491 136.322C104.922 136.322 94.9388 131.884 90.0995 128.006L91.2006 128.808L93.345 125.975C98.0032 129.284 106.653 132.771 117.491 132.771C132.769 132.771 143.948 124.661 144.542 118.894Z" fill="black"/>
<path d="M144.542 116.6V118.894C143.948 124.661 132.769 132.771 117.491 132.771C106.653 132.771 98.0033 129.284 93.3451 125.975L93.3596 125.96L92.3381 125.215C92.2946 125.186 92.2584 125.151 92.2222 125.122H92.2149L5.89709 62.0782L50.3999 47.9382L50.8128 48.2365L140.362 113.546C140.557 113.702 140.767 113.852 140.977 114.001L144.542 116.6Z" fill="#FEFAE0"/>
<path d="M54.703 46.6527L142.564 110.734C141.782 110.158 140.673 110.301 140.065 111.053C139.442 111.827 139.579 112.942 140.362 113.546L50.8127 48.2364L51.2474 47.6683L54.703 46.6527Z" fill="black"/>
<path d="M95.1416 155.59V278.93C95.1416 279.91 94.3303 280.705 93.3305 280.705C92.3308 280.705 91.5194 279.91 91.5194 278.93V155.59C91.5194 154.603 92.3308 153.814 93.3305 153.814C94.3303 153.814 95.1416 154.603 95.1416 155.59Z" fill="black"/>
<path d="M94.0984 312.735L93.9463 312.934C93.3957 312.508 92.9031 312.06 92.4684 311.599L89.8025 313.999L89.8242 314.021L0.898355 248.1C0.449198 247.759 0.181152 247.234 0.181152 246.68V62.8737H0.912844L3.80339 64.9829V245.799L94.0984 312.735Z" fill="black"/>
<path d="M93.9463 312.934L91.9106 315.569L89.8242 314.021L89.8025 313.999L92.4685 311.599C92.9031 312.06 93.3957 312.508 93.9463 312.934Z" fill="black"/>
<path d="M93.3595 125.96L93.345 125.975C92.9828 125.719 92.6495 125.463 92.338 125.215L93.3595 125.96Z" fill="black"/>
<path d="M93.345 125.975L91.2006 128.808L90.0995 128.006C90.0343 127.949 89.9618 127.899 89.8966 127.842L92.2148 125.13L92.338 125.215C92.6495 125.463 92.9828 125.719 93.345 125.975Z" fill="black"/>
<path d="M92.338 125.216L92.2148 125.13H92.2221C92.2221 125.13 92.2945 125.187 92.338 125.216Z" fill="black"/>
<path d="M5.897 62.0782L92.2148 125.13L89.8966 127.842C89.9618 127.899 90.0342 127.949 90.0994 128.006L3.80334 64.9829V62.7458L5.897 62.0782Z" fill="black"/>
<path d="M117.563 322.635C105.624 322.635 94.7432 319.255 89.8242 314.02L91.9106 315.569L93.9463 312.934C98.7494 316.67 107.863 319.084 117.563 319.084C133.711 319.084 144.563 313.076 144.571 307.451V307.891H148.186C147.722 316.201 134.436 322.635 117.563 322.635Z" fill="black"/>
<path d="M51.8125 44.5434L54.703 46.6527L51.2474 47.6683L50.2114 44.2736C50.762 44.1102 51.3488 44.2096 51.8125 44.5434Z" fill="black"/>
<path d="M51.8125 44.5435C51.3488 44.2097 50.762 44.1103 50.2114 44.2737L100.886 29.4092C101.43 29.253 102.024 29.3524 102.48 29.6791L153.452 66.4744V69.9899L153.018 70.5722L101.06 33.0668L54.703 46.6528L51.8125 44.5435Z" fill="black"/>
<path d="M50.2115 44.2736L51.2475 47.6683L50.8128 48.2365L50.3999 47.9382L5.89709 62.0782L3.07899 60.0257L2.84717 59.3155L50.1753 44.2807C50.1753 44.2807 50.197 44.2736 50.2115 44.2736Z" fill="black"/>
<path d="M5.89704 62.0782L3.80338 62.7458V64.9829L0.912842 62.8736L3.07894 60.0258L5.89704 62.0782Z" fill="black"/>
<path d="M0.912844 62.8736H0.181152V61.4532C0.181152 60.6791 0.688265 59.9973 1.43445 59.763L2.84712 59.3156L3.07894 60.0257L0.912844 62.8736Z" fill="black"/>
</g>
<defs>
<clipPath id="clip0_105_229">
<rect width="304.615" height="330" fill="white"/>
</clipPath>
</defs>
</svg>